<svg viewBox="0 0 100 100" version="1.1" xmlns="http://www.w3.org/2000/svg" xmlns:xlink="http://www.w3.org/1999/xlink" xml:space="preserve" xmlns:serif="http://www.serif.com/" style="fill-rule:evenodd;clip-rule:evenodd;stroke-linejoin:round;stroke-miterlimit:2;">
  <path d="M28.773,58.328C28.991,58.546 29.276,58.655 29.561,58.655C29.846,58.655 30.131,58.546 30.349,58.328L34.392,54.285L38.435,58.328C38.653,58.546 38.938,58.655 39.223,58.655C39.508,58.655 39.793,58.546 40.011,58.328C40.447,57.893 40.447,57.187 40.011,56.752L35.968,52.709L40.011,48.666C40.447,48.231 40.447,47.525 40.011,47.09C39.576,46.654 38.87,46.654 38.435,47.09L34.392,51.133L30.349,47.09C29.914,46.654 29.208,46.654 28.773,47.09C28.337,47.525 28.337,48.231 28.773,48.666L32.816,52.709L28.773,56.752C28.337,57.187 28.337,57.893 28.773,58.328Z" style="fill-rule:nonzero;"/>
  <path d="M65.608,46.057C61.94,46.057 58.957,49.041 58.957,52.708C58.957,56.375 61.941,59.361 65.608,59.361C69.276,59.361 72.26,56.376 72.26,52.708C72.26,49.04 69.276,46.057 65.608,46.057ZM65.608,57.206C63.128,57.206 61.112,55.188 61.112,52.709C61.112,50.229 63.128,48.213 65.608,48.213C68.088,48.213 70.105,50.229 70.105,52.709C70.105,55.188 68.087,57.206 65.608,57.206Z" style="fill-rule:nonzero;"/>
  <path d="M64.994,74.273L59.684,79.583L54.686,74.585L49.063,80.208L44.377,75.522L39.379,80.52L34.381,75.522L28.72,81.183C28.354,81.549 28.354,82.142 28.72,82.508C29.086,82.874 29.679,82.874 30.045,82.508L34.38,78.173L39.378,83.171L44.376,78.173L49.062,82.859L54.685,77.236L59.683,82.234L64.993,76.924L69.953,81.884C70.319,82.25 70.912,82.25 71.278,81.884C71.644,81.518 71.644,80.925 71.278,80.559L64.994,74.273Z" style="fill-rule:nonzero;"/>
  <path d="M92.383,39.336L89.875,39.336L89.875,38.15C89.875,28.267 81.857,20.249 71.974,20.249L66.165,20.249L66.165,17.428C66.165,13.884 62.738,11.002 58.524,11.002L51.616,11.002L51.616,6.466L62.502,6.466C63.003,8.922 65.18,10.777 67.782,10.777C70.753,10.777 73.171,8.36 73.171,5.388C73.171,2.416 70.753,0 67.782,0C65.578,0 63.684,1.333 62.85,3.233L48.383,3.233L48.383,11.003L41.475,11.003C37.261,11.003 33.834,13.885 33.834,17.429L33.834,20.25L28.025,20.25C18.142,20.25 10.124,28.268 10.124,38.151L10.124,39.337L7.617,39.337C4.073,39.337 1.191,42.764 1.191,46.978L1.191,64.027C1.191,68.241 4.073,71.668 7.617,71.668L10.125,71.668L10.125,82.1C10.125,91.983 18.143,100.001 28.026,100.001L71.975,100.001C81.858,100.001 89.876,91.983 89.876,82.1L89.876,71.667L92.384,71.667C95.928,71.667 98.81,68.24 98.81,64.026L98.81,46.977C98.809,42.763 95.927,39.336 92.383,39.336ZM67.782,2.155C69.565,2.155 71.015,3.605 71.015,5.388C71.015,7.171 69.565,8.621 67.782,8.621C65.999,8.621 64.549,7.171 64.549,5.388C64.549,3.605 65.999,2.155 67.782,2.155ZM37.068,17.429C37.068,15.381 39.04,13.722 41.476,13.722L58.525,13.722C60.961,13.722 62.933,15.381 62.933,17.429L62.933,20.25L37.068,20.25L37.068,17.429ZM7.617,68.434C5.569,68.434 3.91,66.462 3.91,64.026L3.91,46.977C3.91,44.541 5.569,42.569 7.617,42.569L10.125,42.569L10.125,68.434L7.617,68.434ZM86.642,82.099C86.642,90.182 80.057,96.767 71.974,96.767L28.026,96.767C19.943,96.767 13.358,90.182 13.358,82.099L13.358,38.151C13.358,30.068 19.943,23.483 28.026,23.483L71.975,23.483C80.058,23.483 86.643,30.068 86.643,38.151L86.643,82.099L86.642,82.099ZM96.09,64.026C96.09,66.462 94.431,68.434 92.383,68.434L89.875,68.434L89.875,42.569L92.383,42.569C94.431,42.569 96.09,44.541 96.09,46.977L96.09,64.026Z" style="fill-rule:nonzero;"/>
</svg>
